<svg width="128" height="128" viewBox="0 0 128 128" fill="none" xmlns="http://www.w3.org/2000/svg">
<rect width="128" height="128" fill="#13A944"/>
<path d="M94.8513 51.123C93.8952 54.1585 92.9989 57.2238 92.1623 60.3191C91.3377 63.4024 90.555 66.3841 89.814 69.2642V70.3756C89.814 70.9731 89.82 71.5408 89.8319 72.0786C89.8559 72.6044 89.8798 73.1302 89.9037 73.6561C89.9276 74.17 89.9574 74.7018 89.9933 75.2515C90.0411 75.7893 90.0949 76.3629 90.1546 76.9724H85.8524C85.948 76.2315 86.0316 75.5443 86.1033 74.9109C86.175 74.2656 86.2288 73.6322 86.2647 73.0107C86.3125 72.3893 86.3483 71.7499 86.3722 71.0926C86.3961 70.4354 86.4081 69.7183 86.4081 68.9415C86.0734 67.5672 85.7209 66.1391 85.3504 64.6572C84.9919 63.1753 84.6214 61.6874 84.239 60.1936C83.8566 58.6998 83.4742 57.2179 83.0917 55.7479C82.7093 54.266 82.3329 52.8379 81.9624 51.4636L86.4439 51.0871C86.4917 52.0671 86.5694 53.1068 86.677 54.2063C86.7965 55.2938 86.9339 56.4052 87.0893 57.5405C87.2446 58.6759 87.4179 59.8231 87.6091 60.9823C87.8003 62.1416 87.9975 63.2769 88.2007 64.3883C88.4277 63.253 88.6488 62.0997 88.8639 60.9286C89.091 59.7454 89.3001 58.5802 89.4914 57.433C89.6826 56.2857 89.8559 55.1683 90.0112 54.0808C90.1785 52.9933 90.3219 51.9715 90.4414 51.0154L94.8513 51.123Z" fill="white"/>
<path d="M81.7118 59.0284C81.7118 60.0562 81.5743 61.066 81.2995 62.0579C81.0365 63.0379 80.6242 63.9461 80.0626 64.7827C79.5128 65.6192 78.8137 66.3602 77.9652 67.0055C77.1167 67.6389 76.1128 68.1229 74.9536 68.4575C74.9775 69.9035 75.0074 71.3376 75.0433 72.7598C75.0911 74.17 75.1448 75.5742 75.2046 76.9724H70.8306C71.0218 74.2596 71.1593 71.5468 71.2429 68.834C71.3385 66.1211 71.3863 63.3904 71.3863 60.6417C71.3863 59.0523 71.3744 57.4688 71.3505 55.8913C71.3266 54.3019 71.2788 52.7005 71.2071 51.0871C71.8405 50.8959 72.4798 50.7704 73.1252 50.7107C73.7825 50.6509 74.3382 50.6211 74.7923 50.6211C75.115 50.6211 75.5093 50.6569 75.9754 50.7286C76.4534 50.8003 76.9434 50.9437 77.4453 51.1588C77.9592 51.362 78.4671 51.6548 78.9691 52.0372C79.4829 52.4077 79.943 52.9096 80.3494 53.543C80.7557 54.1645 81.0843 54.9233 81.3353 55.8196C81.5863 56.7159 81.7118 57.7855 81.7118 59.0284ZM74.9536 65.4101C75.348 65.2667 75.6886 65.0755 75.9754 64.8364C76.2742 64.5974 76.5311 64.3345 76.7462 64.0477C76.9733 63.7489 77.1585 63.4322 77.3019 63.0976C77.4573 62.763 77.5828 62.4343 77.6784 62.1117C77.9055 61.3588 78.0369 60.5402 78.0728 59.6558C78.0728 59.6439 78.0668 59.5064 78.0548 59.2435C78.0548 58.9806 78.025 58.6519 77.9652 58.2576C77.9174 57.8512 77.8337 57.4091 77.7142 56.931C77.5947 56.4411 77.4274 55.975 77.2123 55.5328C77.0091 55.0906 76.7403 54.6963 76.4056 54.3497C76.083 53.9912 75.6826 53.7402 75.2046 53.5968C75.109 55.4492 75.0433 57.3075 75.0074 59.1718C74.9716 61.0242 74.9536 62.8944 74.9536 64.7827V65.4101Z" fill="white"/>
<path d="M69.5218 59.0284C69.5218 60.0562 69.3844 61.066 69.1095 62.0579C68.8466 63.0379 68.4343 63.9461 67.8726 64.7827C67.3229 65.6192 66.6238 66.3602 65.7753 67.0055C64.9268 67.6389 63.9229 68.1229 62.7637 68.4575C62.7876 69.9035 62.8175 71.3376 62.8533 72.7598C62.9011 74.17 62.9549 75.5742 63.0146 76.9724H58.6407C58.8319 74.2596 58.9693 71.5468 59.053 68.834C59.1486 66.1211 59.1964 63.3904 59.1964 60.6417C59.1964 59.0523 59.1844 57.4688 59.1605 55.8913C59.1366 54.3019 59.0888 52.7005 59.0171 51.0871C59.6505 50.8959 60.2899 50.7704 60.9352 50.7107C61.5925 50.6509 62.1482 50.6211 62.6023 50.6211C62.925 50.6211 63.3194 50.6569 63.7855 50.7286C64.2635 50.8003 64.7535 50.9437 65.2554 51.1588C65.7693 51.362 66.2772 51.6548 66.7791 52.0372C67.293 52.4077 67.7531 52.9096 68.1594 53.543C68.5658 54.1645 68.8944 54.9233 69.1454 55.8196C69.3963 56.7159 69.5218 57.7855 69.5218 59.0284ZM62.7637 65.4101C63.1581 65.2667 63.4987 65.0755 63.7855 64.8364C64.0842 64.5974 64.3412 64.3345 64.5563 64.0477C64.7834 63.7489 64.9686 63.4322 65.112 63.0976C65.2674 62.763 65.3928 62.4343 65.4884 62.1117C65.7155 61.3588 65.847 60.5402 65.8828 59.6558C65.8828 59.6439 65.8768 59.5064 65.8649 59.2435C65.8649 58.9806 65.835 58.6519 65.7753 58.2576C65.7275 57.8512 65.6438 57.4091 65.5243 56.931C65.4048 56.4411 65.2375 55.975 65.0224 55.5328C64.8192 55.0906 64.5503 54.6963 64.2157 54.3497C63.893 53.9912 63.4927 53.7402 63.0146 53.5968C62.919 55.4492 62.8533 57.3075 62.8175 59.1718C62.7816 61.0242 62.7637 62.8944 62.7637 64.7827V65.4101Z" fill="white"/>
<path d="M53.2276 76.9724C53.1679 76.1478 53.1081 75.3172 53.0484 74.4807C53.0006 73.6441 52.9408 72.8016 52.8691 71.9531C52.3433 71.9172 51.8354 71.8814 51.3454 71.8455C50.8554 71.8097 50.3595 71.7918 49.8575 71.7918H49.6245C49.5648 72.6522 49.511 73.5007 49.4632 74.3373C49.4154 75.1738 49.3735 76.0044 49.3377 76.829L44.8562 76.7573C45.5971 72.4909 46.2664 68.2364 46.8639 63.9939C47.4614 59.7514 47.9693 55.4731 48.3876 51.1588L53.7834 51.2485C54.2375 55.5149 54.7812 59.7574 55.4146 63.976C56.06 68.1826 56.8129 72.4192 57.6733 76.6856L53.2276 76.9724ZM51.1303 55.6762C50.8913 57.8751 50.6642 60.0681 50.4491 62.2551C50.234 64.4421 50.0368 66.647 49.8575 68.8698C50.1085 68.8937 50.3655 68.9057 50.6284 68.9057C50.8913 68.9057 51.1602 68.9057 51.435 68.9057H52.6002C52.3971 66.6828 52.17 64.4779 51.919 62.2909C51.6681 60.104 51.4052 57.899 51.1303 55.6762Z" fill="white"/>
<path d="M44.5692 51.0871C43.4937 54.7321 42.4958 58.3592 41.5756 61.9683C40.6673 65.5774 39.8905 69.2104 39.2452 72.8673C39.3886 72.8912 39.532 72.8972 39.6754 72.8853C39.8308 72.8733 39.9921 72.8673 40.1594 72.8673C40.8048 72.8673 41.4381 72.8554 42.0596 72.8315C42.693 72.7956 43.3323 72.7478 43.9777 72.6881L44.0494 76.8648C42.7945 76.7334 41.5457 76.6438 40.3028 76.5959C39.06 76.5362 37.7872 76.5063 36.4846 76.5063C36.0663 76.5063 35.6361 76.5063 35.1939 76.5063C34.7637 76.5063 34.3394 76.5183 33.9211 76.5422C35.1521 72.9928 36.2874 69.4016 37.3271 65.7686C38.3668 62.1356 39.2631 58.407 40.016 54.5827C39.1914 54.6186 38.3608 54.6783 37.5243 54.762C36.6997 54.8456 35.8512 54.9472 34.9788 55.0667L34.8712 51.123C35.6122 51.1588 36.3471 51.1887 37.0761 51.2126C37.8051 51.2365 38.5401 51.2485 39.281 51.2485C41.0497 51.2485 42.8125 51.1947 44.5692 51.0871Z" fill="white"/>
<path d="M98.4939 57.3892L100.753 48.319L97.451 53.2314L95.6731 50.8087L92.5414 61.0349L96.546 55.1132L98.4939 57.3892Z" fill="#FFFB00"/>
<path d="M32.8285 76.6785L35.9336 67.862L32.1825 72.4409L30.6412 69.8612L26.5585 79.7462L31.1041 74.2289L32.8285 76.6785Z" fill="#FFFB00"/>
</svg>
