<svg width="317" height="72" viewBox="0 0 317 72" fill="none" xmlns="http://www.w3.org/2000/svg">
<g filter="url(#filter0_d_1520_672)">
<path d="M271.734 34.02L267.594 3L280.194 5L278.754 20.4L287.814 3H296.214L297.834 20.4L301.714 5L316.794 3L299.754 34.02H290.694L289.494 16.32L280.794 34.02H271.734Z" fill="white"/>
<path d="M243.39 34.74C234.99 34.74 228.81 28.56 228.81 20.88C228.81 10.62 238.83 2.28003 248.91 2.28003C257.31 2.28003 263.49 8.46003 263.49 16.08C263.49 26.28 253.47 34.74 243.39 34.74ZM243.99 26.28C249.09 26.28 254.07 21.18 254.07 16.32C254.07 13.2 251.67 10.74 248.37 10.74C243.15 10.74 238.23 15.72 238.23 20.64C238.23 23.82 240.69 26.28 243.99 26.28Z" fill="white"/>
<path d="M215.063 2.28003C221.123 2.28003 224.903 6.24003 224.903 11.82C224.903 14.1 224.423 15.66 220.523 34.02H210.803C214.523 16.44 214.763 15.54 214.763 14.46C214.763 12.12 213.323 10.74 211.043 10.74C207.563 10.74 204.383 13.5 203.783 16.56V16.5L200.123 34.02H189.983L196.463 3.00003H206.603L206.003 5.94003C208.283 3.60003 211.523 2.28003 215.063 2.28003Z" fill="white"/>
<path d="M160.012 44.82C157.132 44.82 153.712 43.74 151.552 42.42L154.432 36.06C155.872 36.96 157.252 37.44 158.272 37.44C159.712 37.44 161.692 36.6 162.232 35.76L163.613 34.38L157.492 3H168.753L170.632 23.46L181.852 3H192.352L173.452 35.28C169.673 41.7 164.932 44.82 160.012 44.82Z" fill="white"/>
<path d="M140.096 2.28003C147.176 2.28003 151.916 7.50003 151.916 14.88C151.916 25.26 144.476 34.74 134.516 34.74C130.196 34.74 126.836 32.7 124.916 29.4L121.796 41.34L111.596 44.34L120.176 3.00003H130.376L129.656 6.60003C132.476 3.90003 136.076 2.28003 140.096 2.28003ZM132.176 26.28C137.576 26.28 142.136 21.3 142.136 16.02C142.136 12.9 139.976 10.74 136.616 10.74C131.276 10.74 126.836 15.9 126.836 21.12C126.836 24.18 128.936 26.28 132.176 26.28Z" fill="white"/>
<path d="M99.9591 2.28003C107.039 2.28003 111.779 7.50003 111.779 14.88C111.779 25.26 104.339 34.74 94.3791 34.74C90.0591 34.74 86.6991 32.7 84.7791 29.4L81.6591 40.34L71.4591 44.34L80.0391 3.00003H90.2391L89.5191 6.60003C92.3391 3.90003 95.9391 2.28003 99.9591 2.28003ZM92.0391 26.28C97.4391 26.28 101.999 21.3 101.999 16.02C101.999 12.9 99.8391 10.74 96.4791 10.74C91.1391 10.74 86.6991 15.9 86.6991 21.12C86.6991 24.18 88.7991 26.28 92.0391 26.28Z" fill="white"/>
<path d="M63.0023 4.00003L73.1423 3.00003L66.6623 34.02H56.5223L57.2423 30.42C54.4223 33.12 50.8223 34.74 46.8023 34.74C39.7223 34.74 34.9823 29.46 34.9823 22.08C34.9823 11.82 42.4223 2.28003 52.3823 2.28003C56.7023 2.28003 60.1223 4.32003 62.0423 7.68003L63.0023 4.00003ZM50.3423 26.28C55.6823 26.28 60.0623 21.06 60.0623 15.9C60.0623 12.84 57.9023 10.74 54.7823 10.74C49.3223 10.74 44.7623 15.6 44.7623 21C44.7623 24.12 46.9223 26.28 50.3423 26.28Z" fill="white"/>
<path d="M0 34.02L1.32 26.94L19.2 11.52H5.04L6.84 0L34.26 3L32.88 10.08L15 25.5H29.76L27.9 34.02H0Z" fill="white"/>
</g>
<path d="M10.7341 56.969C12.6531 56.969 13.8501 58.223 13.8501 59.99C13.8501 60.712 13.6981 61.206 12.4631 67.02H9.38506C10.5631 61.453 10.6391 61.168 10.6391 60.826C10.6391 60.085 10.1831 59.648 9.46106 59.648C8.35906 59.648 7.35206 60.522 7.16206 61.491V61.472L6.00306 67.02H2.79206L4.84406 57.197H8.05506L7.86506 58.128C8.58706 57.387 9.61306 56.969 10.7341 56.969ZM23.9603 57.197H27.1713L25.1193 67.02H21.9083L22.1363 65.88C21.2433 66.735 20.1033 67.248 18.8303 67.248C16.5883 67.248 15.0873 65.576 15.0873 63.239C15.0873 59.99 17.4433 56.969 20.5973 56.969C21.9653 56.969 23.0483 57.615 23.6563 58.679L23.9603 57.197ZM19.9513 64.569C21.6423 64.569 23.0293 62.916 23.0293 61.282C23.0293 60.313 22.3453 59.648 21.3573 59.648C19.6283 59.648 18.1843 61.187 18.1843 62.897C18.1843 63.885 18.8683 64.569 19.9513 64.569ZM41.2302 56.969C43.1682 56.969 44.4412 58.261 44.4412 60.047C44.4412 60.598 44.3272 60.978 43.0732 67.039H39.9952C40.9642 62.327 41.2682 60.997 41.2492 60.769C41.2302 60.066 40.9262 59.648 40.1472 59.648C39.1212 59.648 38.1142 60.427 37.9812 61.339C37.7912 62.213 37.4492 63.847 36.7842 67.039H33.7062C34.6752 62.327 34.9792 60.997 34.9602 60.769C34.9602 60.18 34.7322 59.648 33.8772 59.648C32.8132 59.648 31.8632 60.465 31.6922 61.339V61.282L30.4952 67.02H27.2842L29.3362 57.197H32.5472L32.3192 58.299C32.9272 57.463 33.8962 56.969 35.0172 56.969C36.3282 56.969 37.3922 57.634 37.8672 58.679C38.5892 57.577 39.9002 56.969 41.2302 56.969ZM59.117 56.969C61.055 56.969 62.328 58.261 62.328 60.047C62.328 60.598 62.214 60.978 60.96 67.039H57.882C58.851 62.327 59.155 60.997 59.136 60.769C59.117 60.066 58.813 59.648 58.034 59.648C57.008 59.648 56.001 60.427 55.868 61.339C55.678 62.213 55.336 63.847 54.671 67.039H51.593C52.562 62.327 52.866 60.997 52.847 60.769C52.847 60.18 52.619 59.648 51.764 59.648C50.7 59.648 49.75 60.465 49.579 61.339V61.282L48.382 67.02H45.171L47.223 57.197H50.434L50.206 58.299C50.814 57.463 51.783 56.969 52.904 56.969C54.215 56.969 55.279 57.634 55.754 58.679C56.476 57.577 57.787 56.969 59.117 56.969ZM72.4437 57.197H75.6547L73.6027 67.02H70.3917L70.6197 65.88C69.7267 66.735 68.5867 67.248 67.3137 67.248C65.0717 67.248 63.5707 65.576 63.5707 63.239C63.5707 59.99 65.9267 56.969 69.0807 56.969C70.4487 56.969 71.5317 57.615 72.1397 58.679L72.4437 57.197ZM68.4347 64.569C70.1257 64.569 71.5127 62.916 71.5127 61.282C71.5127 60.313 70.8287 59.648 69.8407 59.648C68.1117 59.648 66.6677 61.187 66.6677 62.897C66.6677 63.885 67.3517 64.569 68.4347 64.569ZM86.1486 67.248C83.4886 67.248 81.5316 65.291 81.5316 62.859C81.5316 59.61 84.7046 56.969 87.8966 56.969C90.5566 56.969 92.5136 58.926 92.5136 61.339C92.5136 64.569 89.3406 67.248 86.1486 67.248ZM86.3386 64.569C87.9536 64.569 89.5306 62.954 89.5306 61.415C89.5306 60.427 88.7706 59.648 87.7256 59.648C86.0726 59.648 84.5146 61.225 84.5146 62.783C84.5146 63.79 85.2936 64.569 86.3386 64.569ZM98.2092 67.248C95.5492 67.248 93.5922 65.291 93.5922 62.859C93.5922 59.61 96.7652 56.969 99.9572 56.969C102.617 56.969 104.574 58.926 104.574 61.339C104.574 64.569 101.401 67.248 98.2092 67.248ZM98.3992 64.569C100.014 64.569 101.591 62.954 101.591 61.415C101.591 60.427 100.831 59.648 99.7862 59.648C98.1332 59.648 96.5752 61.225 96.5752 62.783C96.5752 63.79 97.3542 64.569 98.3992 64.569ZM110.08 58.869C110.935 57.672 112.189 56.969 113.595 56.969L113.253 59.648C111.258 59.648 109.662 60.902 109.282 62.726V62.688L108.37 67.02H105.159L107.211 57.197H110.422L110.08 58.869ZM122.149 57.197H125.36L123.308 67.02H120.097L120.287 66.089C119.565 66.83 118.539 67.248 117.418 67.248C115.499 67.248 114.302 65.994 114.302 64.227C114.302 63.505 114.454 63.011 115.689 57.197H118.767C117.589 62.764 117.513 63.049 117.513 63.391C117.513 64.132 117.969 64.569 118.691 64.569C119.793 64.569 120.8 63.695 120.99 62.726V62.745L122.149 57.197ZM140.076 57.197H143.287L141.235 67.02H138.024L138.252 65.88C137.359 66.735 136.219 67.248 134.946 67.248C132.704 67.248 131.203 65.576 131.203 63.239C131.203 59.99 133.559 56.969 136.713 56.969C138.081 56.969 139.164 57.615 139.772 58.679L140.076 57.197ZM136.067 64.569C137.758 64.569 139.145 62.916 139.145 61.282C139.145 60.313 138.461 59.648 137.473 59.648C135.744 59.648 134.3 61.187 134.3 62.897C134.3 63.885 134.984 64.569 136.067 64.569ZM151.778 56.969C154.02 56.969 155.521 58.622 155.521 60.959C155.521 64.246 153.165 67.248 150.011 67.248C148.643 67.248 147.579 66.602 146.971 65.557L145.983 70.288H142.753L145.47 57.197H148.7L148.472 58.337C149.365 57.482 150.505 56.969 151.778 56.969ZM149.27 64.569C150.98 64.569 152.424 62.992 152.424 61.32C152.424 60.332 151.74 59.648 150.676 59.648C148.985 59.648 147.579 61.282 147.579 62.935C147.579 63.904 148.244 64.569 149.27 64.569ZM164.488 56.969C166.73 56.969 168.231 58.622 168.231 60.959C168.231 64.246 165.875 67.248 162.721 67.248C161.353 67.248 160.289 66.602 159.681 65.557L158.693 70.288H155.463L158.18 57.197H161.41L161.182 58.337C162.075 57.482 163.215 56.969 164.488 56.969ZM161.98 64.569C163.69 64.569 165.134 62.992 165.134 61.32C165.134 60.332 164.45 59.648 163.386 59.648C161.695 59.648 160.289 61.282 160.289 62.935C160.289 63.904 160.954 64.569 161.98 64.569ZM182.012 56.969C183.931 56.969 185.128 58.223 185.128 59.99C185.128 60.712 184.976 61.206 183.741 67.02H180.663C181.841 61.453 181.917 61.168 181.917 60.826C181.917 60.085 181.461 59.648 180.739 59.648C179.637 59.648 178.63 60.522 178.44 61.491V61.472L177.281 67.02H174.07L176.122 57.197H179.333L179.143 58.128C179.865 57.387 180.891 56.969 182.012 56.969ZM195.239 57.197H198.45L196.398 67.02H193.187L193.415 65.88C192.522 66.735 191.382 67.248 190.109 67.248C187.867 67.248 186.366 65.576 186.366 63.239C186.366 59.99 188.722 56.969 191.876 56.969C193.244 56.969 194.327 57.615 194.935 58.679L195.239 57.197ZM191.23 64.569C192.921 64.569 194.308 62.916 194.308 61.282C194.308 60.313 193.624 59.648 192.636 59.648C190.907 59.648 189.463 61.187 189.463 62.897C189.463 63.885 190.147 64.569 191.23 64.569ZM212.509 56.969C214.447 56.969 215.72 58.261 215.72 60.047C215.72 60.598 215.606 60.978 214.352 67.039H211.274C212.243 62.327 212.547 60.997 212.528 60.769C212.509 60.066 212.205 59.648 211.426 59.648C210.4 59.648 209.393 60.427 209.26 61.339C209.07 62.213 208.728 63.847 208.063 67.039H204.985C205.954 62.327 206.258 60.997 206.239 60.769C206.239 60.18 206.011 59.648 205.156 59.648C204.092 59.648 203.142 60.465 202.971 61.339V61.282L201.774 67.02H198.563L200.615 57.197H203.826L203.598 58.299C204.206 57.463 205.175 56.969 206.296 56.969C207.607 56.969 208.671 57.634 209.146 58.679C209.868 57.577 211.179 56.969 212.509 56.969ZM230.395 56.969C232.333 56.969 233.606 58.261 233.606 60.047C233.606 60.598 233.492 60.978 232.238 67.039H229.16C230.129 62.327 230.433 60.997 230.414 60.769C230.395 60.066 230.091 59.648 229.312 59.648C228.286 59.648 227.279 60.427 227.146 61.339C226.956 62.213 226.614 63.847 225.949 67.039H222.871C223.84 62.327 224.144 60.997 224.125 60.769C224.125 60.18 223.897 59.648 223.042 59.648C221.978 59.648 221.028 60.465 220.857 61.339V61.282L219.66 67.02H216.449L218.501 57.197H221.712L221.484 58.299C222.092 57.463 223.061 56.969 224.182 56.969C225.493 56.969 226.557 57.634 227.032 58.679C227.754 57.577 229.065 56.969 230.395 56.969ZM243.722 57.197H246.933L244.881 67.02H241.67L241.898 65.88C241.005 66.735 239.865 67.248 238.592 67.248C236.35 67.248 234.849 65.576 234.849 63.239C234.849 59.99 237.205 56.969 240.359 56.969C241.727 56.969 242.81 57.615 243.418 58.679L243.722 57.197ZM239.713 64.569C241.404 64.569 242.791 62.916 242.791 61.282C242.791 60.313 242.107 59.648 241.119 59.648C239.39 59.648 237.946 61.187 237.946 62.897C237.946 63.885 238.63 64.569 239.713 64.569ZM257.389 67.248C254.767 67.248 252.81 65.291 252.81 62.859C252.81 59.629 255.983 56.969 259.194 56.969C260.923 56.969 262.177 57.767 262.937 58.812L260.581 60.389C260.277 59.914 259.574 59.648 259.004 59.648C257.37 59.648 255.85 61.244 255.85 62.783C255.85 63.79 256.61 64.569 257.617 64.569C258.396 64.569 259.27 64.132 259.821 63.6L261.702 65.538C260.486 66.659 259.042 67.248 257.389 67.248ZM270.759 56.969C272.678 56.969 273.875 58.223 273.875 59.99C273.875 60.712 273.723 61.206 272.488 67.02H269.41C270.588 61.453 270.664 61.168 270.664 60.826C270.664 60.085 270.208 59.648 269.486 59.648C268.441 59.648 267.491 60.427 267.225 61.32L266.047 67.02H262.817L265.572 53.739H268.802L267.89 58.128C268.612 57.387 269.638 56.969 270.759 56.969ZM279.73 67.248C277.07 67.248 275.113 65.291 275.113 62.859C275.113 59.61 278.286 56.969 281.478 56.969C284.138 56.969 286.095 58.926 286.095 61.339C286.095 64.569 282.922 67.248 279.73 67.248ZM279.92 64.569C281.535 64.569 283.112 62.954 283.112 61.415C283.112 60.427 282.352 59.648 281.307 59.648C279.654 59.648 278.096 61.225 278.096 62.783C278.096 63.79 278.875 64.569 279.92 64.569ZM290.84 55.981C289.909 55.981 289.263 55.297 289.263 54.442C289.263 53.416 290.175 52.599 291.125 52.599C291.999 52.599 292.645 53.302 292.645 54.157C292.645 55.126 291.771 55.981 290.84 55.981ZM286.717 67.02L288.769 57.197H291.98L289.928 67.02H286.717ZM297.226 67.248C294.604 67.248 292.647 65.291 292.647 62.859C292.647 59.629 295.82 56.969 299.031 56.969C300.76 56.969 302.014 57.767 302.774 58.812L300.418 60.389C300.114 59.914 299.411 59.648 298.841 59.648C297.207 59.648 295.687 61.244 295.687 62.783C295.687 63.79 296.447 64.569 297.454 64.569C298.233 64.569 299.107 64.132 299.658 63.6L301.539 65.538C300.323 66.659 298.879 67.248 297.226 67.248ZM308.145 62.992H305.979V63.03C305.979 64.094 306.549 64.645 307.575 64.645C308.487 64.645 309.418 64.265 310.159 63.714L311.793 65.804C310.748 66.716 309.076 67.248 307.575 67.248C304.858 67.248 303.148 65.557 303.148 63.068C303.148 59.686 305.865 56.969 309.209 56.969C311.413 56.969 312.971 58.071 312.971 59.648C312.971 61.833 311.185 63.087 308.145 62.992ZM309.095 59.553C308.012 59.553 307.1 60.161 306.549 61.035H308.525C309.532 61.035 310.14 60.712 310.14 60.18C310.14 59.819 309.703 59.553 309.095 59.553Z" fill="#FFFB00"/>
<defs>
<filter id="filter0_d_1520_672" x="0" y="0" width="316.794" height="48.82" filterUnits="userSpaceOnUse" color-interpolation-filters="sRGB">
<feFlood flood-opacity="0" result="BackgroundImageFix"/>
<feColorMatrix in="SourceAlpha" type="matrix" values="0 0 0 0 0 0 0 0 0 0 0 0 0 0 0 0 0 0 127 0" result="hardAlpha"/>
<feOffset dy="4"/>
<feComposite in2="hardAlpha" operator="out"/>
<feColorMatrix type="matrix" values="0 0 0 0 0 0 0 0 0 0 0 0 0 0 0 0 0 0 0.25 0"/>
<feBlend mode="normal" in2="BackgroundImageFix" result="effect1_dropShadow_1520_672"/>
<feBlend mode="normal" in="SourceGraphic" in2="effect1_dropShadow_1520_672" result="shape"/>
</filter>
</defs>
</svg>
