<svg width="36" height="36" viewBox="0 0 36 36" fill="none" xmlns="http://www.w3.org/2000/svg">
<path d="M17.991 1.5C7.2285 1.5 1.5 7.659 1.5 18.0285C1.5 28.317 7.2765 34.5 18.009 34.5C28.7415 34.5 34.3005 28.8945 34.5 17.9745C34.317 7.419 28.461 1.5 17.991 1.5ZM9.5295 16.8525C9.2475 16.074 9.648 15.213 10.4265 14.9295C10.878 14.766 11.2515 14.523 11.544 14.2845C11.2515 14.0445 10.878 13.8015 10.4265 13.638C9.648 13.356 9.246 12.495 9.528 11.7165C9.8115 10.938 10.671 10.5375 11.4495 10.818C13.6185 11.6055 14.718 13.3035 14.8365 13.494C15.1365 13.9785 15.1365 14.5905 14.8365 15.075C14.718 15.2655 13.6185 16.9605 11.451 17.7495C11.2815 17.811 11.1075 17.841 10.938 17.841C10.3245 17.841 9.7515 17.463 9.5295 16.8525ZM24.99 25.929C24.9495 26.5815 24.6 27.1665 24.033 27.534C23.4315 27.924 22.692 28.002 22.0035 27.7485C20.4225 27.162 19.1445 26.8545 17.9745 26.7795C16.854 26.853 15.777 27.096 13.992 27.7485C12.9255 28.1385 12.3345 27.774 11.964 27.5355C11.397 27.168 11.049 26.583 11.007 25.929C10.935 24.822 11.457 24.2175 11.775 23.955C13.7265 22.3455 15.876 21.4875 17.994 21.474C20.118 21.4875 22.269 22.347 24.219 23.955C24.537 24.2175 25.059 24.822 24.987 25.929H24.99ZM25.5735 14.931C26.352 15.2145 26.754 16.0755 26.4705 16.854C26.25 17.463 25.674 17.8425 25.062 17.8425C24.8925 17.8425 24.7185 17.8125 24.549 17.751C22.38 16.962 21.2805 15.2655 21.162 15.075C20.8635 14.5905 20.8635 13.98 21.162 13.4955C21.2805 13.305 22.38 11.6085 24.5505 10.8195C25.329 10.5375 26.1885 10.9395 26.472 11.718C26.754 12.4965 26.352 13.3575 25.572 13.6395C25.1205 13.803 24.747 14.046 24.456 14.2845C24.747 14.5245 25.122 14.766 25.5735 14.931Z" fill="#727272" fill-opacity="0.39"/>
</svg>
