<svg width="103" height="98" viewBox="0 0 103 98" fill="none" xmlns="http://www.w3.org/2000/svg">
<g filter="url(#filter0_d_276_398)">
<path d="M34.4017 53.9542C35.185 54.4484 35.4632 55.4145 35.023 56.1121C34.5829 56.8097 33.5911 56.9746 32.8078 56.4805L28.9076 54.0198C28.1243 53.5256 27.8461 52.5595 28.2863 51.8618C28.7264 51.1642 29.7182 50.9993 30.5015 51.4935L34.4017 53.9542Z" fill="black"/>
<path d="M49.2777 30.3756C50.0609 30.8698 50.3391 31.8359 49.899 32.5335C49.4589 33.2311 48.4671 33.396 47.6838 32.9019L43.7836 30.4412C43.0003 29.947 42.7221 28.9809 43.1622 28.2832C43.6024 27.5856 44.5941 27.4207 45.3774 27.9149L49.2777 30.3756Z" fill="black"/>
<path d="M57.7533 65.7577L53.6329 64.7934C52.3869 64.5018 51.8523 63.0258 52.5767 61.8775L62.6604 45.8948C63.4147 44.6992 65.0607 44.5939 65.8213 45.6926L68.2718 49.2319C68.6519 49.7809 68.7098 50.513 68.4242 51.1579L64.9282 59.0519C64.8385 59.2546 64.7174 59.4425 64.5699 59.6078L59.6522 65.1215C59.1614 65.6717 58.4312 65.9164 57.7533 65.7577Z" fill="white"/>
<path d="M25.071 42.8382C25.3644 42.3731 25.9793 42.2339 26.4444 42.5274C26.9094 42.8208 26.6275 43.17 26.3341 43.6351C26.0407 44.1002 25.8469 44.505 25.3818 44.2115C24.9167 43.9181 24.7776 43.3032 25.071 42.8382Z" fill="#EC2626"/>
<path d="M34.3207 28.1772C34.6142 27.7121 35.229 27.5729 35.6941 27.8664C36.1592 28.1598 35.8773 28.509 35.5839 28.9741C35.2905 29.4392 35.0966 29.844 34.6315 29.5505C34.1665 29.2571 34.0273 28.6422 34.3207 28.1772Z" fill="#EC2626"/>
<path fill-rule="evenodd" clip-rule="evenodd" d="M53.0011 61.9534C52.3603 62.9691 52.9121 64.3244 54.0913 64.631L58.4241 65.7574C59.0658 65.9242 59.7426 65.7274 60.1845 65.2456L65.1039 59.881C65.2367 59.7362 65.3439 59.5701 65.4213 59.3896L68.7683 51.5751C69.0144 51.0005 68.9351 50.3353 68.5598 49.825L65.8709 46.1695C65.1198 45.1482 63.5787 45.1877 62.9115 46.2452L53.0011 61.9534ZM53.9958 65.0129C52.5546 64.6382 51.8801 62.9817 52.6633 61.7403L62.5737 46.0321C63.3892 44.7396 65.2727 44.6914 66.1908 45.9395L68.8797 49.595C69.3384 50.2187 69.4353 51.0318 69.1345 51.734L65.7875 59.5486C65.693 59.7692 65.5619 59.9722 65.3996 60.1492L60.4802 65.5137C59.9401 66.1027 59.1128 66.3432 58.3286 66.1393L53.9958 65.0129Z" fill="#13A944"/>
<path d="M34.2158 52.0966C32.9628 54.1022 30.3213 54.7123 28.3158 53.4594L25.6616 51.8012C23.656 50.5483 23.0459 47.9067 24.2988 45.9012L35.7353 27.5949C36.9883 25.5893 39.6298 24.9792 41.6353 26.2322L44.2895 27.8903C46.2951 29.1433 46.9052 31.7848 45.6523 33.7903L34.2158 52.0966Z" fill="black"/>
<path d="M59.1619 62.6361C57.5964 65.1174 54.3252 65.9505 51.617 64.5577L29.4612 53.1634C26.4071 51.5927 25.2731 47.8387 27.0004 45.0168L36.1501 30.0684C37.8946 27.2184 41.804 26.5451 44.5872 28.6153L64.7508 43.6132C67.2155 45.4465 67.8983 48.7887 66.3195 51.2912L59.1619 62.6361Z" fill="#FFFB00"/>
<path d="M66.7628 60.2436C67.0562 59.7785 67.6711 59.6394 68.1361 59.9328C68.6012 60.2262 68.3193 60.5754 68.0259 61.0405C67.7325 61.5056 67.5386 61.9104 67.0736 61.617C66.6085 61.3235 66.4693 60.7087 66.7628 60.2436Z" fill="black"/>
<path d="M67.0332 61.3562C66.6811 61.9142 65.9432 62.0812 65.3851 61.7291L64.0378 60.8791C63.4797 60.527 63.3127 59.7891 63.6648 59.231L64.5148 57.8837C64.867 57.3256 65.6048 57.1586 66.1629 57.5107L67.5103 58.3607C68.0683 58.7129 68.2353 59.4507 67.8832 60.0088L67.0332 61.3562Z" fill="#13A944"/>
<path fill-rule="evenodd" clip-rule="evenodd" d="M65.5404 52.4088L38.2708 28.5722L38.5185 28.2968L65.7881 52.1335L65.5404 52.4088Z" fill="white"/>
<path fill-rule="evenodd" clip-rule="evenodd" d="M65.5404 52.4088L38.2708 28.5722L38.5185 28.2968L65.7881 52.1335L65.5404 52.4088Z" fill="#DCD810" fill-opacity="0.7"/>
<path fill-rule="evenodd" clip-rule="evenodd" d="M60.2293 60.8308L26.4809 47.2594L26.2973 47.6638L60.0457 61.2352L60.2293 60.8308Z" fill="white"/>
<path fill-rule="evenodd" clip-rule="evenodd" d="M60.2293 60.8308L26.4809 47.2594L26.2973 47.6638L60.0457 61.2352L60.2293 60.8308Z" fill="#DCD810" fill-opacity="0.7"/>
<path fill-rule="evenodd" clip-rule="evenodd" d="M62.9369 56.6526L31.7794 36.9951L31.2481 37.8372L62.4056 57.4947L62.9369 56.6526Z" fill="white"/>
<path fill-rule="evenodd" clip-rule="evenodd" d="M62.9369 56.6526L31.7794 36.9951L31.2481 37.8372L62.4056 57.4947L62.9369 56.6526Z" fill="#DCD810" fill-opacity="0.97"/>
</g>
<defs>
<filter id="filter0_d_276_398" x="0.647827" y="0.581177" width="101.659" height="96.6295" filterUnits="userSpaceOnUse" color-interpolation-filters="sRGB">
<feFlood flood-opacity="0" result="BackgroundImageFix"/>
<feColorMatrix in="SourceAlpha" type="matrix" values="0 0 0 0 0 0 0 0 0 0 0 0 0 0 0 0 0 0 127 0" result="hardAlpha"/>
<feOffset dx="5" dy="3"/>
<feGaussianBlur stdDeviation="14"/>
<feComposite in2="hardAlpha" operator="out"/>
<feColorMatrix type="matrix" values="0 0 0 0 0 0 0 0 0 0 0 0 0 0 0 0 0 0 0.25 0"/>
<feBlend mode="normal" in2="BackgroundImageFix" result="effect1_dropShadow_276_398"/>
<feBlend mode="normal" in="SourceGraphic" in2="effect1_dropShadow_276_398" result="shape"/>
</filter>
</defs>
</svg>
