<svg width="24" height="24" viewBox="0 0 24 24" fill="none" xmlns="http://www.w3.org/2000/svg">
<path d="M20.68 1.16701L20.659 1.16001L17.944 0.260005C17.0062 -0.0513388 15.9974 -0.0788214 15.044 0.181005L9.468 1.80001C8.78525 1.98094 8.06072 1.91726 7.42 1.62001L6.92 1.38801C6.16059 1.07218 5.335 0.948563 4.51639 1.02811C3.69779 1.10766 2.91144 1.38792 2.22705 1.84405C1.54266 2.30018 0.981356 2.91809 0.592883 3.64303C0.204411 4.36797 0.000767286 5.17754 0 6.00001L0 18.075C0.0021016 19.1563 0.353792 20.208 1.00259 21.0731C1.65139 21.9381 2.56251 22.5702 3.6 22.875L6.469 23.775C6.95302 23.9255 7.45713 24.0014 7.964 24C8.41581 24.0057 8.866 23.9447 9.3 23.819L15.1 22.219C15.63 22.0753 16.1893 22.0798 16.717 22.232L19.06 22.908C19.6482 23.0502 20.261 23.0571 20.8523 22.9282C21.4436 22.7992 21.9979 22.5378 22.4735 22.1636C22.9491 21.7894 23.3336 21.3121 23.598 20.7678C23.8624 20.2234 23.9999 19.6262 24 19.021V5.87601C23.9985 4.84484 23.6788 3.83927 23.0847 2.9965C22.4905 2.15374 21.6507 1.51484 20.68 1.16701ZM4.176 20.959C3.55031 20.7781 3.00009 20.3993 2.6078 19.8793C2.2155 19.3594 2.00225 18.7263 2 18.075V6.00001C1.99514 5.50468 2.11496 5.0161 2.34842 4.57922C2.58189 4.14235 2.9215 3.77122 3.336 3.50001C3.8292 3.17285 4.40816 2.99888 5 3.00001C5.38166 3.00011 5.75955 3.07555 6.112 3.22201C6.112 3.22201 6.857 3.54101 6.999 3.59201V21.842L4.176 20.959ZM9 21.827V3.87901C9.33966 3.86098 9.67667 3.80906 10.006 3.72401L15 2.27301V20.2L9 21.827ZM22 19.021C22.0002 19.3205 21.9331 19.6163 21.8037 19.8865C21.6743 20.1566 21.4859 20.3942 21.2524 20.5818C21.0188 20.7694 20.7461 20.9021 20.4544 20.9701C20.1627 21.0382 19.8594 21.0399 19.567 20.975L17 20.252V2.07501L20.018 3.05401C20.598 3.26416 21.0993 3.64768 21.4539 4.15253C21.8085 4.65737 21.9991 5.25909 22 5.87601V19.021Z" fill="black"/>
</svg>
