<svg width="44" height="44" viewBox="0 0 44 44" fill="none" xmlns="http://www.w3.org/2000/svg">
<path d="M43.578 15.7C42.648 13.184 40.47 11.702 37.846 11.81C35.842 11.874 33.836 11.928 31.834 11.968C30.944 12.044 30.102 11.4 29.826 10.512C29.232 8.592 28.636 6.674 28.03 4.758C27.214 2.156 24.848 0.473999 22.004 0.473999C19.16 0.473999 16.794 2.156 15.978 4.756C15.37 6.672 14.774 8.59 14.182 10.51C13.906 11.4 13.102 12.048 12.174 11.968C10.17 11.928 8.164 11.876 6.182 11.812C3.56 11.708 1.354 13.188 0.426001 15.702C-0.587999 18.446 0.264001 21.488 2.558 23.28C4.182 24.526 5.792 25.742 7.4 26.942C8.164 27.512 8.458 28.532 8.134 29.482C7.466 31.44 6.768 33.406 6.046 35.374C5.062 37.976 5.762 40.688 7.83 42.28C10.01 43.962 13.1 43.936 15.524 42.208L20.64 38.534C21.468 37.942 22.54 37.94 23.37 38.534L28.494 42.214C29.72 43.086 31.118 43.524 32.482 43.524C33.81 43.524 35.106 43.11 36.18 42.282C38.246 40.69 38.946 37.978 37.97 35.392C37.24 33.408 36.546 31.44 35.876 29.484C35.55 28.536 35.846 27.516 36.608 26.946C38.218 25.744 39.83 24.528 41.466 23.272C43.746 21.49 44.598 18.448 43.584 15.704L43.578 15.7ZM39.01 20.104C37.402 21.338 35.804 22.544 34.208 23.734C32.05 25.348 31.196 28.176 32.084 30.774C32.762 32.758 33.468 34.756 34.214 36.784C34.578 37.744 34.402 38.592 33.732 39.11C33.132 39.57 32.008 39.806 30.816 38.958L25.694 35.28C24.588 34.488 23.292 34.09 21.998 34.09C20.704 34.09 19.408 34.486 18.302 35.278L13.188 38.952C11.988 39.806 10.862 39.572 10.266 39.108C9.596 38.592 9.42 37.744 9.788 36.768C10.528 34.756 11.234 32.758 11.912 30.774C12.8 28.176 11.946 25.348 9.786 23.734C8.192 22.544 6.594 21.338 5 20.114C3.956 19.298 3.832 18.006 4.17 17.086C4.354 16.586 4.864 15.77 6.022 15.806C8.042 15.87 10.064 15.924 12.086 15.966C14.782 15.948 17.184 14.302 17.996 11.692C18.586 9.778 19.18 7.868 19.786 5.956C20.128 4.862 21.154 4.472 21.996 4.472C22.838 4.472 23.864 4.862 24.206 5.956V5.96C24.81 7.868 25.404 9.778 25.996 11.694C26.806 14.302 29.144 15.972 31.906 15.966C33.926 15.924 35.948 15.872 37.992 15.806C39.124 15.738 39.634 16.584 39.82 17.086C40.16 18.006 40.034 19.3 39.004 20.104H39.01Z" fill="#4945FF"/>
</svg>
