<svg width="36" height="36" viewBox="0 0 36 36" fill="none" xmlns="http://www.w3.org/2000/svg">
<path d="M17.991 1.5C7.2285 1.5 1.5 7.659 1.5 18.0285C1.5 28.317 7.2765 34.5 18.009 34.5C28.7415 34.5 34.3005 28.8945 34.5 17.9745C34.317 7.419 28.461 1.5 17.991 1.5ZM12.93 12.0045C14.172 12.0045 15.18 13.0125 15.18 14.2545C15.18 15.4965 14.172 16.5045 12.93 16.5045C11.688 16.5045 10.68 15.4965 10.68 14.2545C10.68 13.0125 11.688 12.0045 12.93 12.0045ZM24.2235 25.332C22.272 26.9415 20.1225 27.7995 18.0045 27.813C15.8805 27.7995 13.7295 26.94 11.7795 25.332C11.4615 25.0695 10.9395 24.465 11.0115 23.358C11.052 22.7055 11.4015 22.1205 11.9685 21.753C12.57 21.363 13.3095 21.285 13.998 21.5385C15.579 22.125 16.857 22.4325 18.027 22.5075C19.1475 22.434 20.2245 22.191 22.0095 21.5385C23.076 21.1485 23.667 21.513 24.0375 21.7515C24.6045 22.119 24.9525 22.704 24.9945 23.358C25.0665 24.465 24.5445 25.0695 24.2265 25.332H24.2235ZM23.07 16.5045C21.828 16.5045 20.82 15.4965 20.82 14.2545C20.82 13.0125 21.828 12.0045 23.07 12.0045C24.312 12.0045 25.32 13.0125 25.32 14.2545C25.32 15.4965 24.312 16.5045 23.07 16.5045Z" fill="#727272" fill-opacity="0.39"/>
</svg>
