<svg width="30" height="26" viewBox="0 0 30 26" fill="none" xmlns="http://www.w3.org/2000/svg">
<path d="M28.2311 10.0598L24.1466 3.05984C23.1048 1.27484 21.1751 0.166504 19.1089 0.166504H10.8594C8.79328 0.166504 6.86244 1.276 5.82061 3.05984L1.73611 10.0598C0.679109 11.8728 0.679109 14.1257 1.73611 15.9387L5.82061 22.9387C6.86244 24.7237 8.79211 25.832 10.8583 25.832H19.1078C21.1739 25.832 23.1048 24.7225 24.1466 22.9387L28.2299 15.9387C29.2869 14.1257 29.2881 11.8728 28.2311 10.0598ZM19.3248 15.6738C19.7809 16.13 19.7809 16.8673 19.3248 17.3235C19.0973 17.551 18.7986 17.6653 18.4999 17.6653C18.2013 17.6653 17.9026 17.551 17.6751 17.3235L14.9999 14.6483L12.3248 17.3235C12.0973 17.551 11.7986 17.6653 11.4999 17.6653C11.2013 17.6653 10.9026 17.551 10.6751 17.3235C10.2189 16.8673 10.2189 16.13 10.6751 15.6738L13.3503 12.9987L10.6751 10.3235C10.2189 9.86734 10.2189 9.13 10.6751 8.67384C11.1313 8.21767 11.8686 8.21767 12.3248 8.67384L14.9999 11.349L17.6751 8.67384C18.1313 8.21767 18.8686 8.21767 19.3248 8.67384C19.7809 9.13 19.7809 9.86734 19.3248 10.3235L16.6496 12.9987L19.3248 15.6738Z" fill="#727272" fill-opacity="0.39"/>
</svg>
