<svg width="140" height="59" viewBox="0 0 140 59" fill="none" xmlns="http://www.w3.org/2000/svg">
<path d="M123.858 7.14544C122.201 12.4061 120.647 17.7186 119.198 23.0828C117.768 28.4264 116.412 33.5939 115.128 38.5853V40.5115C115.128 41.547 115.138 42.5308 115.159 43.4628C115.2 44.3741 115.242 45.2854 115.283 46.1967C115.324 47.0873 115.376 48.009 115.438 48.9617C115.521 49.8937 115.614 50.8878 115.718 51.9441H108.262C108.428 50.66 108.573 49.4691 108.697 48.3714C108.821 47.253 108.914 46.1553 108.976 45.0783C109.059 44.0013 109.121 42.8933 109.163 41.7541C109.204 40.615 109.225 39.3723 109.225 38.0261C108.645 35.6443 108.034 33.1693 107.392 30.6011C106.771 28.0329 106.129 25.4543 105.466 22.8654C104.803 20.2764 104.14 17.7082 103.478 15.1607C102.815 12.5925 102.162 10.1175 101.52 7.73571L109.287 7.08331C109.37 8.78164 109.505 10.5835 109.691 12.489C109.898 14.3737 110.136 16.2999 110.406 18.2674C110.675 20.235 110.975 22.2233 111.306 24.2323C111.638 26.2413 111.98 28.2089 112.332 30.1351C112.725 28.1675 113.108 26.1688 113.481 24.1391C113.875 22.0887 114.237 20.0693 114.569 18.081C114.9 16.0928 115.2 14.1562 115.469 12.2715C115.759 10.3868 116.008 8.61595 116.215 6.95904L123.858 7.14544Z" fill="black"/>
<path d="M101.085 20.846C101.085 22.6272 100.847 24.3773 100.371 26.0963C99.9152 27.7947 99.2007 29.3687 98.2273 30.8185C97.2745 32.2683 96.0629 33.5524 94.5924 34.6709C93.1219 35.7686 91.3821 36.6074 89.3731 37.1873C89.4146 39.6934 89.4663 42.1787 89.5285 44.6434C89.6113 47.0873 89.7045 49.5209 89.8081 51.9441H82.2277C82.5591 47.2427 82.7973 42.5412 82.9423 37.8397C83.108 33.1382 83.1908 28.4057 83.1908 23.642C83.1908 20.8874 83.1701 18.1432 83.1287 15.4093C83.0872 12.6547 83.0044 9.87934 82.8801 7.08331C83.9778 6.75193 85.0859 6.53446 86.2043 6.4309C87.3434 6.32734 88.3065 6.27557 89.0935 6.27557C89.6527 6.27557 90.3362 6.3377 91.144 6.46197C91.9724 6.58624 92.8216 6.83477 93.6915 7.20758C94.5821 7.55967 95.4623 8.0671 96.3322 8.72986C97.2228 9.37192 98.0201 10.2418 98.7243 11.3395C99.4285 12.4165 99.9981 13.7317 100.433 15.285C100.868 16.8384 101.085 18.692 101.085 20.846ZM89.3731 31.9059C90.0566 31.6574 90.6469 31.326 91.144 30.9117C91.6618 30.4975 92.107 30.0419 92.4798 29.5448C92.8734 29.027 93.1944 28.4782 93.4429 27.8982C93.7122 27.3183 93.9296 26.7488 94.0953 26.1895C94.4889 24.8847 94.7167 23.466 94.7788 21.9334C94.7788 21.9127 94.7685 21.6745 94.7477 21.2188C94.7477 20.7632 94.696 20.1936 94.5924 19.5101C94.5096 18.8059 94.3646 18.0396 94.1575 17.2112C93.9504 16.362 93.6604 15.5543 93.2876 14.7879C92.9355 14.0216 92.4695 13.3381 91.8896 12.7375C91.3304 12.1162 90.6365 11.6812 89.8081 11.4327C89.6424 14.643 89.5285 17.8636 89.4663 21.0946C89.4042 24.3048 89.3731 27.5461 89.3731 30.8185V31.9059Z" fill="black"/>
<path d="M79.9598 20.846C79.9598 22.6272 79.7216 24.3773 79.2453 26.0963C78.7896 27.7947 78.0751 29.3687 77.1016 30.8185C76.1489 32.2683 74.9373 33.5524 73.4668 34.6709C71.9963 35.7686 70.2565 36.6074 68.2475 37.1873C68.289 39.6934 68.3407 42.1787 68.4029 44.6434C68.4857 47.0873 68.5789 49.5209 68.6825 51.9441H61.1021C61.4335 47.2427 61.6717 42.5412 61.8167 37.8397C61.9823 33.1382 62.0652 28.4057 62.0652 23.642C62.0652 20.8874 62.0445 18.1432 62.0031 15.4093C61.9616 12.6547 61.8788 9.87934 61.7545 7.08331C62.8522 6.75193 63.9603 6.53446 65.0787 6.4309C66.2178 6.32734 67.1809 6.27557 67.9679 6.27557C68.5271 6.27557 69.2106 6.3377 70.0184 6.46197C70.8468 6.58624 71.696 6.83477 72.5659 7.20758C73.4564 7.55967 74.3367 8.0671 75.2066 8.72986C76.0971 9.37192 76.8945 10.2418 77.5987 11.3395C78.3029 12.4165 78.8725 13.7317 79.3074 15.285C79.7423 16.8384 79.9598 18.692 79.9598 20.846ZM68.2475 31.9059C68.931 31.6574 69.5213 31.326 70.0184 30.9117C70.5361 30.4975 70.9814 30.0419 71.3542 29.5448C71.7478 29.027 72.0688 28.4782 72.3173 27.8982C72.5866 27.3183 72.804 26.7488 72.9697 26.1895C73.3632 24.8847 73.5911 23.466 73.6532 21.9334C73.6532 21.9127 73.6428 21.6745 73.6221 21.2188C73.6221 20.7632 73.5704 20.1936 73.4668 19.5101C73.384 18.8059 73.239 18.0396 73.0319 17.2112C72.8247 16.362 72.5348 15.5543 72.162 14.7879C71.8099 14.0216 71.3439 13.3381 70.764 12.7375C70.2048 12.1162 69.5109 11.6812 68.6825 11.4327C68.5168 14.643 68.4029 17.8636 68.3407 21.0946C68.2786 24.3048 68.2475 27.5461 68.2475 30.8185V31.9059Z" fill="black"/>
<path d="M51.7198 51.9441C51.6163 50.515 51.5127 49.0756 51.4091 47.6258C51.3263 46.176 51.2227 44.7159 51.0985 43.2454C50.1872 43.1832 49.3069 43.1211 48.4578 43.059C47.6086 42.9968 46.7491 42.9658 45.8792 42.9658H45.4753C45.3718 44.457 45.2786 45.9275 45.1957 47.3773C45.1129 48.8271 45.0404 50.2665 44.9783 51.6956L37.2115 51.5713C38.4956 44.1774 39.6554 36.8041 40.691 29.4516C41.7266 22.099 42.6068 14.6844 43.3317 7.20757L52.6829 7.36291C53.4699 14.7569 54.4123 22.1094 55.51 29.4205C56.6284 36.7109 57.9332 44.0531 59.4244 51.4471L51.7198 51.9441ZM48.085 15.0365C47.6707 18.8474 47.2772 22.6479 46.9044 26.4381C46.5316 30.2283 46.1899 34.0495 45.8792 37.9018C46.3141 37.9432 46.7594 37.964 47.2151 37.964C47.6707 37.964 48.1367 37.964 48.6131 37.964H50.6325C50.2804 34.1116 49.8869 30.2904 49.4519 26.5002C49.017 22.71 48.5613 18.8888 48.085 15.0365Z" fill="black"/>
<path d="M36.7145 7.08331C34.8505 13.4003 33.1211 19.6862 31.5263 25.941C29.9522 32.1958 28.606 38.4921 27.4876 44.8298C27.7361 44.8712 27.9847 44.8816 28.2332 44.8608C28.5024 44.8401 28.782 44.8298 29.072 44.8298C30.1904 44.8298 31.2881 44.8091 32.3651 44.7676C33.4628 44.7055 34.5709 44.6227 35.6893 44.5191L35.8136 51.7577C33.6389 51.5299 31.4745 51.3746 29.3205 51.2917C27.1666 51.1882 24.9608 51.1364 22.7033 51.1364C21.9784 51.1364 21.2327 51.1364 20.4664 51.1364C19.7208 51.1364 18.9856 51.1571 18.2607 51.1985C20.3939 45.0472 22.3615 38.8235 24.1634 32.5272C25.9653 26.231 27.5186 19.769 28.8235 13.1414C27.3944 13.2035 25.9549 13.3071 24.5051 13.4521C23.0761 13.597 21.6056 13.7731 20.0936 13.9802L19.9072 7.14544C21.1913 7.20757 22.4651 7.25935 23.7285 7.30077C24.9919 7.3422 26.2656 7.36291 27.5497 7.36291C30.615 7.36291 33.6699 7.26971 36.7145 7.08331Z" fill="black"/>
<path d="M130.17 18.0052L134.085 2.28599L128.362 10.7995L125.281 6.60072L119.854 24.3234L126.794 14.0607L130.17 18.0052Z" fill="#FFFB00"/>
<path d="M16.3682 51.4348L21.7495 36.1552L15.2487 44.0907L12.5775 39.6199L5.50189 56.7514L13.3797 47.1894L16.3682 51.4348Z" fill="#FFFB00"/>
</svg>
