<svg width="79" height="77" viewBox="0 0 79 77" fill="none" xmlns="http://www.w3.org/2000/svg">
<circle cx="33.697" cy="36.697" r="16.6154" transform="rotate(60 33.697 36.697)" fill="#4945FF" fill-opacity="0.25"/>
<g filter="url(#filter0_d_1684_347)">
<path d="M34.3838 29.1913C33.9922 29.4174 33.5114 29.318 33.3101 28.9692C33.1087 28.6204 33.2629 28.1543 33.6545 27.9282L35.6046 26.8023C35.9962 26.5762 36.477 26.6757 36.6783 27.0245C36.8797 27.3733 36.7255 27.8393 36.3338 28.0654L34.3838 29.1913Z" fill="black"/>
<path d="M41.1901 40.9802C40.7985 41.2063 40.3178 41.1068 40.1164 40.758C39.915 40.4092 40.0692 39.9432 40.4609 39.7171L42.4109 38.5912C42.8026 38.3651 43.2833 38.4646 43.4847 38.8134C43.686 39.1622 43.5318 39.6282 43.1402 39.8543L41.1901 40.9802Z" fill="black"/>
<path d="M23.9741 36.5981L25.3276 35.0369C25.7369 34.5648 26.4962 34.6693 26.8277 35.2434L31.4414 43.2346C31.7865 43.8323 31.4578 44.5675 30.8101 44.6464L28.7235 44.9006C28.3999 44.94 28.0704 44.7986 27.8566 44.5285L25.2404 41.2231C25.1732 41.1382 25.1196 41.0432 25.0817 40.9419L23.8173 37.5633C23.6911 37.2261 23.7514 36.855 23.9741 36.5981Z" fill="white"/>
<path d="M41.3086 27.6868C41.4429 27.9193 41.3632 28.2166 41.1307 28.3509C40.8981 28.4851 40.8113 28.2839 40.6771 28.0514C40.5428 27.8189 40.412 27.6431 40.6445 27.5088C40.877 27.3746 41.1744 27.4542 41.3086 27.6868Z" fill="#EC2626"/>
<path d="M45.5407 35.017C45.675 35.2496 45.5953 35.5469 45.3628 35.6811C45.1302 35.8154 45.0434 35.6142 44.9092 35.3816C44.7749 35.1491 44.6441 34.9733 44.8766 34.8391C45.1091 34.7048 45.4065 34.7845 45.5407 35.017Z" fill="#EC2626"/>
<path fill-rule="evenodd" clip-rule="evenodd" d="M26.6984 35.4096C26.4052 34.9018 25.6941 34.8321 25.2935 35.2719L23.8217 36.8881C23.6037 37.1274 23.5349 37.4646 23.6426 37.7651L24.8422 41.1105C24.8746 41.2008 24.922 41.2849 24.9824 41.3594L27.5981 44.5824C27.7905 44.8194 28.0959 44.9364 28.4018 44.8902L30.5927 44.5595C31.2048 44.4671 31.5381 43.7922 31.2329 43.2634L26.6984 35.4096ZM25.1502 35.1438C25.6398 34.6062 26.509 34.6914 26.8673 35.3121L31.4017 43.1659C31.7749 43.8122 31.3674 44.637 30.6193 44.75L28.4284 45.0807C28.0546 45.1371 27.6812 44.9941 27.4462 44.7045L24.8304 41.4815C24.7566 41.3905 24.6987 41.2877 24.6591 41.1773L23.4595 37.8319C23.3278 37.4646 23.412 37.0525 23.6783 36.76L25.1502 35.1438Z" fill="#13A944"/>
<path d="M35.2287 29.5333C34.647 28.5359 34.9839 27.2558 35.9813 26.674L37.3013 25.9041C38.2987 25.3223 39.5788 25.6593 40.1606 26.6567L45.4707 35.7607C46.0524 36.7581 45.7155 38.0382 44.7181 38.62L43.3981 39.3899C42.4007 39.9716 41.1206 39.6347 40.5388 38.6373L35.2287 29.5333Z" fill="black"/>
<path d="M25.0027 37.9165C24.2865 36.6759 24.6702 35.073 25.8878 34.2194L35.8488 27.2363C37.2219 26.2737 39.1019 26.6372 39.9285 28.0251L44.3076 35.3776C45.1425 36.7793 44.5446 38.6217 43.0172 39.3537L31.952 44.6567C30.5994 45.3049 29 44.84 28.2776 43.5888L25.0027 37.9165Z" fill="#FFFB00"/>
<path d="M24.3084 41.7449C24.4426 41.9774 24.363 42.2747 24.1304 42.409C23.8979 42.5432 23.8111 42.342 23.6768 42.1095C23.5426 41.877 23.4117 41.7012 23.6443 41.5669C23.8768 41.4327 24.1741 41.5123 24.3084 41.7449Z" fill="black"/>
<path d="M23.7662 41.6088C23.6051 41.3297 23.7007 40.9729 23.9797 40.8118L24.6534 40.4229C24.9324 40.2618 25.2892 40.3574 25.4503 40.6364L25.8392 41.3101C26.0003 41.5891 25.9047 41.9459 25.6257 42.107L24.952 42.496C24.673 42.6571 24.3162 42.5614 24.1551 42.2824L23.7662 41.6088Z" fill="#13A944"/>
<path fill-rule="evenodd" clip-rule="evenodd" d="M27.9718 42.998L44.472 36.6341L44.5346 36.8037L28.0345 43.1677L27.9718 42.998Z" fill="white"/>
<path fill-rule="evenodd" clip-rule="evenodd" d="M27.9718 42.998L44.472 36.6341L44.5346 36.8037L28.0345 43.1677L27.9718 42.998Z" fill="#DCD810" fill-opacity="0.7"/>
<path fill-rule="evenodd" clip-rule="evenodd" d="M25.5401 38.7882L39.0776 27.2907L38.9446 27.1195L25.4071 38.6169L25.5401 38.7882Z" fill="white"/>
<path fill-rule="evenodd" clip-rule="evenodd" d="M25.5401 38.7882L39.0776 27.2907L38.9446 27.1195L25.4071 38.6169L25.5401 38.7882Z" fill="#DCD810" fill-opacity="0.7"/>
<path fill-rule="evenodd" clip-rule="evenodd" d="M26.7299 40.9081L42.3082 31.914L42.0651 31.4929L26.4868 40.4871L26.7299 40.9081Z" fill="white"/>
<path fill-rule="evenodd" clip-rule="evenodd" d="M26.7299 40.9081L42.3082 31.914L42.0651 31.4929L26.4868 40.4871L26.7299 40.9081Z" fill="#DCD810" fill-opacity="0.97"/>
</g>
<defs>
<filter id="filter0_d_1684_347" x="0.398254" y="0.619019" width="78.3575" height="75.4738" filterUnits="userSpaceOnUse" color-interpolation-filters="sRGB">
<feFlood flood-opacity="0" result="BackgroundImageFix"/>
<feColorMatrix in="SourceAlpha" type="matrix" values="0 0 0 0 0 0 0 0 0 0 0 0 0 0 0 0 0 0 127 0" result="hardAlpha"/>
<feOffset dx="5" dy="3"/>
<feGaussianBlur stdDeviation="14"/>
<feComposite in2="hardAlpha" operator="out"/>
<feColorMatrix type="matrix" values="0 0 0 0 0 0 0 0 0 0 0 0 0 0 0 0 0 0 0.25 0"/>
<feBlend mode="normal" in2="BackgroundImageFix" result="effect1_dropShadow_1684_347"/>
<feBlend mode="normal" in="SourceGraphic" in2="effect1_dropShadow_1684_347" result="shape"/>
</filter>
</defs>
</svg>
