<svg width="24" height="24" viewBox="0 0 24 24" fill="none" xmlns="http://www.w3.org/2000/svg">
<path d="M2 7H0V3C0 1.35 1.35 0 3 0H7V2H3C2.45 2 2 2.45 2 3V7ZM7 22H3C2.45 22 2 21.55 2 21V17H0V21C0 22.65 1.35 24 3 24H7V22ZM24 21V17H22V21C22 21.55 21.55 22 21 22H17V24H21C22.65 24 24 22.65 24 21ZM24 3C24 1.35 22.65 0 21 0H17V2H21C21.55 2 22 2.45 22 3V7H24V3ZM12.02 14.86L15.28 17.38L16.03 16.86L14.7 12.83L18 10.92V10H13.67L12.49 5.5H11.52L10.34 10H6V10.92L9.32 12.77L8.02 16.85L8.74 17.39L12.01 14.86H12.02Z" fill="#13A944"/>
</svg>
