<svg width="95" height="95" viewBox="0 0 95 95" fill="none" xmlns="http://www.w3.org/2000/svg">
<circle cx="47.5" cy="47.5" r="47.5" fill="#4945FF"/>
<g clip-path="url(#clip0_1715_1445)">
<path d="M48.0001 24.084C42.708 24.0898 37.6342 26.1945 33.892 29.9364C30.1497 33.6784 28.0444 38.7519 28.0381 44.044C28.0381 49.184 32.0181 57.228 39.8681 67.952C40.8026 69.2322 42.0262 70.2738 43.4393 70.9918C44.8524 71.7098 46.415 72.0841 48.0001 72.0841C49.5851 72.0841 51.1478 71.7098 52.5609 70.9918C53.974 70.2738 55.1976 69.2322 56.1321 67.952C63.9821 57.228 67.9621 49.184 67.9621 44.044C67.9557 38.7519 65.8505 33.6784 62.1082 29.9364C58.3659 26.1945 53.2922 24.0898 48.0001 24.084ZM48.0001 52C46.4178 52 44.8711 51.5308 43.5555 50.6517C42.2399 49.7727 41.2146 48.5233 40.609 47.0615C40.0035 45.5996 39.8451 43.9911 40.1538 42.4393C40.4625 40.8874 41.2244 39.462 42.3432 38.3431C43.4621 37.2243 44.8875 36.4624 46.4394 36.1537C47.9912 35.845 49.5997 36.0034 51.0616 36.609C52.5234 37.2145 53.7728 38.2398 54.6518 39.5554C55.5309 40.871 56.0001 42.4177 56.0001 44C56.0001 46.1217 55.1572 48.1566 53.6569 49.6568C52.1566 51.1571 50.1218 52 48.0001 52Z" fill="white"/>
</g>
<defs>
<clipPath id="clip0_1715_1445">
<rect width="48" height="48" fill="white" transform="translate(24 24)"/>
</clipPath>
</defs>
</svg>
