<svg width="212" height="90" viewBox="0 0 212 90" fill="none" xmlns="http://www.w3.org/2000/svg">
<path d="M186.88 10.7812C184.38 18.7188 182.037 26.7344 179.849 34.8281C177.693 42.8906 175.646 50.6875 173.709 58.2188V61.125C173.709 62.6875 173.724 64.1719 173.755 65.5781C173.818 66.9531 173.88 68.3281 173.943 69.7031C174.005 71.0469 174.084 72.4375 174.177 73.875C174.302 75.2812 174.443 76.7812 174.599 78.375H163.349C163.599 76.4375 163.818 74.6406 164.005 72.9844C164.193 71.2969 164.334 69.6406 164.427 68.0156C164.552 66.3906 164.646 64.7188 164.709 63C164.771 61.2812 164.802 59.4062 164.802 57.375C163.927 53.7812 163.005 50.0469 162.037 46.1719C161.099 42.2969 160.13 38.4062 159.13 34.5C158.13 30.5938 157.13 26.7188 156.13 22.875C155.13 19 154.146 15.2656 153.177 11.6719L164.896 10.6875C165.021 13.25 165.224 15.9688 165.505 18.8438C165.818 21.6875 166.177 24.5938 166.584 27.5625C166.99 30.5312 167.443 33.5312 167.943 36.5625C168.443 39.5938 168.959 42.5625 169.49 45.4688C170.084 42.5 170.662 39.4844 171.224 36.4219C171.818 33.3281 172.365 30.2812 172.865 27.2812C173.365 24.2812 173.818 21.3594 174.224 18.5156C174.662 15.6719 175.037 13 175.349 10.5L186.88 10.7812Z" fill="white"/>
<path d="M152.521 31.4531C152.521 34.1406 152.162 36.7812 151.443 39.375C150.755 41.9375 149.677 44.3125 148.209 46.5C146.771 48.6875 144.943 50.625 142.724 52.3125C140.505 53.9688 137.88 55.2344 134.849 56.1094C134.912 59.8906 134.99 63.6406 135.084 67.3594C135.209 71.0469 135.349 74.7188 135.505 78.375H124.068C124.568 71.2812 124.927 64.1875 125.146 57.0938C125.396 50 125.521 42.8594 125.521 35.6719C125.521 31.5156 125.49 27.375 125.427 23.25C125.365 19.0938 125.24 14.9062 125.052 10.6875C126.709 10.1875 128.38 9.85938 130.068 9.70312C131.787 9.54688 133.24 9.46875 134.427 9.46875C135.271 9.46875 136.302 9.5625 137.521 9.75C138.771 9.9375 140.052 10.3125 141.365 10.875C142.709 11.4062 144.037 12.1719 145.349 13.1719C146.693 14.1406 147.896 15.4531 148.959 17.1094C150.021 18.7344 150.88 20.7188 151.537 23.0625C152.193 25.4062 152.521 28.2031 152.521 31.4531ZM134.849 48.1406C135.88 47.7656 136.771 47.2656 137.521 46.6406C138.302 46.0156 138.974 45.3281 139.537 44.5781C140.13 43.7969 140.615 42.9688 140.99 42.0938C141.396 41.2188 141.724 40.3594 141.974 39.5156C142.568 37.5469 142.912 35.4062 143.005 33.0938C143.005 33.0625 142.99 32.7031 142.959 32.0156C142.959 31.3281 142.88 30.4688 142.724 29.4375C142.599 28.375 142.38 27.2188 142.068 25.9688C141.755 24.6875 141.318 23.4688 140.755 22.3125C140.224 21.1562 139.521 20.125 138.646 19.2188C137.802 18.2812 136.755 17.625 135.505 17.25C135.255 22.0938 135.084 26.9531 134.99 31.8281C134.896 36.6719 134.849 41.5625 134.849 46.5V48.1406Z" fill="white"/>
<path d="M120.646 31.4531C120.646 34.1406 120.287 36.7812 119.568 39.375C118.88 41.9375 117.802 44.3125 116.334 46.5C114.896 48.6875 113.068 50.625 110.849 52.3125C108.63 53.9688 106.005 55.2344 102.974 56.1094C103.037 59.8906 103.115 63.6406 103.209 67.3594C103.334 71.0469 103.474 74.7188 103.63 78.375H92.1929C92.6929 71.2812 93.0523 64.1875 93.271 57.0938C93.521 50 93.646 42.8594 93.646 35.6719C93.646 31.5156 93.6148 27.375 93.5523 23.25C93.4898 19.0938 93.3648 14.9062 93.1773 10.6875C94.8335 10.1875 96.5054 9.85938 98.1929 9.70312C99.9117 9.54688 101.365 9.46875 102.552 9.46875C103.396 9.46875 104.427 9.5625 105.646 9.75C106.896 9.9375 108.177 10.3125 109.49 10.875C110.834 11.4062 112.162 12.1719 113.474 13.1719C114.818 14.1406 116.021 15.4531 117.084 17.1094C118.146 18.7344 119.005 20.7188 119.662 23.0625C120.318 25.4062 120.646 28.2031 120.646 31.4531ZM102.974 48.1406C104.005 47.7656 104.896 47.2656 105.646 46.6406C106.427 46.0156 107.099 45.3281 107.662 44.5781C108.255 43.7969 108.74 42.9688 109.115 42.0938C109.521 41.2188 109.849 40.3594 110.099 39.5156C110.693 37.5469 111.037 35.4062 111.13 33.0938C111.13 33.0625 111.115 32.7031 111.084 32.0156C111.084 31.3281 111.005 30.4688 110.849 29.4375C110.724 28.375 110.505 27.2188 110.193 25.9688C109.88 24.6875 109.443 23.4688 108.88 22.3125C108.349 21.1562 107.646 20.125 106.771 19.2188C105.927 18.2812 104.88 17.625 103.63 17.25C103.38 22.0938 103.209 26.9531 103.115 31.8281C103.021 36.6719 102.974 41.5625 102.974 46.5V48.1406Z" fill="white"/>
<path d="M78.0367 78.375C77.8804 76.2188 77.7242 74.0469 77.5679 71.8594C77.4429 69.6719 77.2867 67.4688 77.0992 65.25C75.7242 65.1562 74.396 65.0625 73.1148 64.9688C71.8335 64.875 70.5367 64.8281 69.2242 64.8281H68.6148C68.4585 67.0781 68.3179 69.2969 68.1929 71.4844C68.0679 73.6719 67.9585 75.8438 67.8648 78L56.146 77.8125C58.0835 66.6562 59.8335 55.5312 61.396 44.4375C62.9585 33.3438 64.2867 22.1562 65.3804 10.875L79.4898 11.1094C80.6773 22.2656 82.0992 33.3594 83.7554 44.3906C85.4429 55.3906 87.4117 66.4688 89.6617 77.625L78.0367 78.375ZM72.5523 22.6875C71.9273 28.4375 71.3335 34.1719 70.771 39.8906C70.2085 45.6094 69.6929 51.375 69.2242 57.1875C69.8804 57.25 70.5523 57.2812 71.2398 57.2812C71.9273 57.2812 72.6304 57.2812 73.3492 57.2812H76.396C75.8648 51.4688 75.271 45.7031 74.6148 39.9844C73.9585 34.2656 73.271 28.5 72.5523 22.6875Z" fill="white"/>
<path d="M55.396 10.6875C52.5835 20.2188 49.9742 29.7031 47.5679 39.1406C45.1929 48.5781 43.1617 58.0781 41.4742 67.6406C41.8492 67.7031 42.2242 67.7188 42.5992 67.6875C43.0054 67.6562 43.4273 67.6406 43.8648 67.6406C45.5523 67.6406 47.2085 67.6094 48.8335 67.5469C50.4898 67.4531 52.1617 67.3281 53.8492 67.1719L54.0367 78.0938C50.7554 77.75 47.4898 77.5156 44.2398 77.3906C40.9898 77.2344 37.6617 77.1562 34.2554 77.1562C33.1617 77.1562 32.0367 77.1562 30.8804 77.1562C29.7554 77.1562 28.646 77.1875 27.5523 77.25C30.771 67.9688 33.7398 58.5781 36.4585 49.0781C39.1773 39.5781 41.521 29.8281 43.4898 19.8281C41.3335 19.9219 39.1617 20.0781 36.9742 20.2969C34.8179 20.5156 32.5992 20.7812 30.3179 21.0938L30.0367 10.7812C31.9742 10.875 33.896 10.9531 35.8023 11.0156C37.7085 11.0781 39.6304 11.1094 41.5679 11.1094C46.1929 11.1094 50.8023 10.9688 55.396 10.6875Z" fill="white"/>
<path d="M196.405 27.1669L202.313 3.44918L193.677 16.2947L189.028 9.95939L180.839 36.7L191.311 21.2153L196.405 27.1669Z" fill="#FFFB00"/>
<path d="M24.697 77.6065L32.8165 54.5521L23.0078 66.5255L18.9774 59.7798L8.30154 85.6283L20.1878 71.2009L24.697 77.6065Z" fill="#FFFB00"/>
</svg>
