<svg width="34" height="34" viewBox="0 0 34 34" fill="none" xmlns="http://www.w3.org/2000/svg">
<path d="M16.991 0.5C6.2285 0.5 0.5 6.659 0.5 17.0285C0.5 27.317 6.2765 33.5 17.009 33.5C27.7415 33.5 33.3005 27.8945 33.5 16.9745C33.317 6.419 27.461 0.5 16.991 0.5ZM8.8805 14.153C8.9165 12.3305 10.046 11.273 11.903 11.2625C13.7465 11.273 14.9015 12.365 14.936 14.111C14.9 15.932 13.772 16.9895 11.9165 17.0015H11.8985C10.043 16.9895 8.915 15.926 8.879 14.1545L8.8805 14.153ZM22.0925 24.7505H11.909C11.0795 24.7505 10.409 24.0785 10.409 23.2505C10.409 22.4225 11.0795 21.7505 11.909 21.7505H22.0925C22.922 21.7505 23.5925 22.4225 23.5925 23.2505C23.5925 24.0785 22.922 24.7505 22.0925 24.7505ZM22.1015 17.0015H22.0835C20.228 16.9895 19.1 15.926 19.064 14.1545C19.1 12.332 20.2295 11.2745 22.0865 11.264C23.93 11.2745 25.085 12.3665 25.1195 14.1125C25.0835 15.9335 23.9555 16.991 22.1 17.003L22.1015 17.0015Z" fill="#727272" fill-opacity="0.39"/>
</svg>
