<svg width="36" height="36" viewBox="0 0 36 36" fill="none" xmlns="http://www.w3.org/2000/svg">
<g clip-path="url(#clip0_971_1825)">
<path d="M18 36C8.0745 36 0 27.9255 0 18C0 8.0745 8.0745 0 18 0C27.9255 0 36 8.0745 36 18C36 27.9255 27.9255 36 18 36ZM18 3C9.729 3 3 9.729 3 18C3 26.271 9.729 33 18 33C26.271 33 33 26.271 33 18C33 9.729 26.271 3 18 3ZM22.1205 20.9565L20.517 22.233C17.4105 21.0465 15.1185 18.849 13.767 15.483L15.0435 13.8795C15.7125 13.2105 15.7125 12.1245 15.0435 11.4555L13.5435 9.5025C12.8745 8.8335 11.7885 8.8335 11.1195 9.5025L10.2195 10.2855C9.3915 11.112 9 12.201 9 13.2855C9 19.2855 17.1435 27 22.7145 27C23.799 27 24.888 26.6085 25.7145 25.7805L26.4975 24.8805C27.1665 24.2115 27.1665 23.1255 26.4975 22.4565L24.5445 20.9565C23.8755 20.2875 22.7895 20.2875 22.1205 20.9565Z" fill="#4945FF"/>
</g>
<defs>
<clipPath id="clip0_971_1825">
<rect width="36" height="36" fill="white"/>
</clipPath>
</defs>
</svg>
