<svg width="28" height="29" viewBox="0 0 28 29" fill="none" xmlns="http://www.w3.org/2000/svg">
<g clip-path="url(#clip0_748_10191)">
<path d="M26.8334 13.3334H15.1666V1.66665C15.1666 1.02232 14.6443 0.5 14 0.5C13.3557 0.5 12.8334 1.02232 12.8334 1.66665V13.3333H1.16665C0.52232 13.3334 0 13.8557 0 14.5C0 15.1443 0.52232 15.6666 1.16665 15.6666H12.8333V27.3333C12.8333 27.9776 13.3556 28.4999 13.9999 28.4999C14.6443 28.4999 15.1666 27.9776 15.1666 27.3333V15.6666H26.8332C27.4776 15.6666 27.9999 15.1443 27.9999 14.5C28 13.8557 27.4777 13.3334 26.8334 13.3334Z" fill="#2E2E2E"/>
</g>
<defs>
<clipPath id="clip0_748_10191">
<rect width="28" height="28" fill="white" transform="translate(0 0.5)"/>
</clipPath>
</defs>
</svg>
