<svg width="27" height="27" viewBox="0 0 27 27" fill="none" xmlns="http://www.w3.org/2000/svg">
<circle cx="13.5" cy="13.5" r="13.5" fill="#4945FF"/>
<path d="M13.5042 13.7188C16.062 13.7039 17.439 12.3227 17.4864 9.70186C17.4425 7.18019 15.9911 5.72528 13.4957 5.70898C10.9733 5.72457 9.51343 7.21207 9.51343 9.72665C9.51343 12.2412 10.974 13.7039 13.5042 13.7188Z" fill="white"/>
<path d="M13.4957 14.6768C9.72167 14.7008 7.69088 16.7387 7.62288 20.5715C7.62005 20.7613 7.69301 20.9448 7.82617 21.0801C7.95934 21.2154 8.14138 21.2919 8.33122 21.2919H18.6693C18.8592 21.2919 19.0412 21.2154 19.1744 21.0801C19.3075 20.9448 19.3805 20.7613 19.3777 20.5715C19.3125 16.794 17.2272 14.7008 13.4957 14.6768Z" fill="white"/>
</svg>
