<svg width="27" height="27" viewBox="0 0 27 27" fill="none" xmlns="http://www.w3.org/2000/svg">
<circle cx="13.5" cy="13.5" r="13.5" fill="#13A944"/>
<path d="M13.5043 13.7189C16.0621 13.704 17.4391 12.3228 17.4866 9.70192C17.4426 7.18025 15.9913 5.72533 13.4958 5.70904C10.9734 5.72462 9.51355 7.21212 9.51355 9.72671C9.51355 12.2413 10.9741 13.704 13.5043 13.7189Z" fill="white"/>
<path d="M13.4958 14.6765C9.7218 14.7006 7.691 16.7385 7.623 20.5713C7.62017 20.7611 7.69313 20.9446 7.8263 21.0799C7.95946 21.2152 8.1415 21.2917 8.33134 21.2917H18.6695C18.8593 21.2917 19.0413 21.2152 19.1745 21.0799C19.3077 20.9446 19.3806 20.7611 19.3778 20.5713C19.3126 16.7938 17.2273 14.7006 13.4958 14.6765Z" fill="white"/>
</svg>
