<svg width="44" height="44" viewBox="0 0 44 44" fill="none" xmlns="http://www.w3.org/2000/svg">
<path d="M43.5781 15.7C42.6481 13.184 40.4701 11.702 37.8461 11.81C35.8421 11.874 33.8361 11.928 31.8341 11.968C30.9441 12.044 30.1021 11.4 29.8261 10.512C29.2321 8.592 28.6361 6.674 28.0301 4.758C27.2141 2.156 24.8481 0.473999 22.0041 0.473999C19.1601 0.473999 16.7941 2.156 15.9781 4.756C15.3701 6.672 14.7741 8.59 14.1821 10.51C13.9061 11.4 13.1021 12.048 12.1741 11.968C10.1701 11.928 8.16409 11.876 6.18209 11.812C3.56009 11.708 1.35409 13.188 0.426093 15.702C-0.587907 18.446 0.264093 21.488 2.55809 23.28C4.18209 24.526 5.79209 25.742 7.40009 26.942C8.16409 27.512 8.45809 28.532 8.13409 29.482C7.46609 31.44 6.76809 33.406 6.04609 35.374C5.06209 37.976 5.76209 40.688 7.83009 42.28C10.0101 43.962 13.1001 43.936 15.5241 42.208L20.6401 38.534C21.4681 37.942 22.5401 37.94 23.3701 38.534L28.4941 42.214C29.7201 43.086 31.1181 43.524 32.4821 43.524C33.8101 43.524 35.1061 43.11 36.1801 42.282C38.2461 40.69 38.9461 37.978 37.9701 35.392C37.2401 33.408 36.5461 31.44 35.8761 29.484C35.5501 28.536 35.8461 27.516 36.6081 26.946C38.2181 25.744 39.8301 24.528 41.4661 23.272C43.7461 21.49 44.5981 18.448 43.5841 15.704L43.5781 15.7ZM39.0101 20.104C37.4021 21.338 35.8041 22.544 34.2081 23.734C32.0501 25.348 31.1961 28.176 32.0841 30.774C32.7621 32.758 33.4681 34.756 34.2141 36.784C34.5781 37.744 34.4021 38.592 33.7321 39.11C33.1321 39.57 32.0081 39.806 30.8161 38.958L25.6941 35.28C24.5881 34.488 23.2921 34.09 21.9981 34.09C20.7041 34.09 19.4081 34.486 18.3021 35.278L13.1881 38.952C11.9881 39.806 10.8621 39.572 10.2661 39.108C9.59609 38.592 9.42009 37.744 9.78809 36.768C10.5281 34.756 11.2341 32.758 11.9121 30.774C12.8001 28.176 11.9461 25.348 9.78609 23.734C8.19209 22.544 6.59409 21.338 5.00009 20.114C3.95609 19.298 3.83209 18.006 4.17009 17.086C4.35409 16.586 4.86409 15.77 6.02209 15.806C8.04209 15.87 10.0641 15.924 12.0861 15.966C14.7821 15.948 17.1841 14.302 17.9961 11.692C18.5861 9.778 19.1801 7.868 19.7861 5.956C20.1281 4.862 21.1541 4.472 21.9961 4.472C22.8381 4.472 23.8641 4.862 24.2061 5.956V5.96C24.8101 7.868 25.4041 9.778 25.9961 11.694C26.8061 14.302 29.1441 15.972 31.9061 15.966C33.9261 15.924 35.9481 15.872 37.9921 15.806C39.1241 15.738 39.6341 16.584 39.8201 17.086C40.1601 18.006 40.0341 19.3 39.0041 20.104H39.0101Z" fill="black" fill-opacity="0.25"/>
</svg>
