<svg width="24" height="24" viewBox="0 0 24 24" fill="none" xmlns="http://www.w3.org/2000/svg">
<path d="M12 1C6.878 1 1 2.25 1 12C1 21.75 6.878 23 12 23C17.122 23 23 21.75 23 12C23 2.25 17.122 1 12 1ZM17.4 12C17.4 14.467 17.053 15.815 16.212 16.548L14.493 13.981L15.064 12.224L17.39 11.345C17.396 11.554 17.399 11.772 17.399 11.999L17.4 12ZM6.6 12C6.6 11.774 6.603 11.557 6.609 11.349L8.937 12.229L9.511 13.996L7.797 16.556C6.949 15.825 6.6 14.475 6.6 11.999V12ZM11.329 13.12L10.914 11.844L11.999 11.056L13.084 11.844L12.669 13.12H11.327H11.329ZM14.409 10.334L13 9.31V6.613C15.436 6.689 16.698 7.142 17.173 9.29L14.409 10.334ZM11 6.613V9.31L9.587 10.336L6.826 9.293C7.3 7.142 8.562 6.688 10.999 6.613H11ZM11.166 15.12H12.849L14.301 17.289C13.654 17.378 12.892 17.4 12 17.4C11.114 17.4 10.356 17.378 9.713 17.291L11.166 15.12Z" fill="white"/>
</svg>
