<svg width="24" height="24" viewBox="0 0 24 24" fill="none" xmlns="http://www.w3.org/2000/svg">
<g clip-path="url(#clip0_877_701)">
<path d="M24 13C24.0036 14.5735 23.6954 16.1321 23.0933 17.5859C22.4912 19.0397 21.6071 20.3598 20.492 21.47C19.9532 22.0121 19.2297 22.3312 18.4661 22.3634C17.7024 22.3957 16.9546 22.1388 16.372 21.644L15.346 20.757C15.2466 20.6711 15.1651 20.5665 15.1061 20.4491C15.0471 20.3317 15.0118 20.2038 15.0023 20.0728C14.983 19.8082 15.0695 19.5467 15.243 19.346C15.3289 19.2466 15.4335 19.165 15.5509 19.1061C15.6683 19.0471 15.7961 19.0118 15.9272 19.0022C16.1918 18.9829 16.4532 19.0695 16.654 19.243L17.681 20.131C17.8788 20.2997 18.1339 20.386 18.3935 20.372C18.6531 20.3581 18.8974 20.2449 19.076 20.056C20.0296 19.0907 20.7776 17.9422 21.2751 16.6798C21.7726 15.4174 22.0091 14.0673 21.9704 12.711C21.9317 11.3547 21.6186 10.0203 21.05 8.78831C20.4814 7.55633 19.669 6.45235 18.662 5.54297C17.611 4.59464 16.3689 3.88272 15.0193 3.45525C13.6698 3.02778 12.2443 2.8947 10.839 3.06497C8.96877 3.2817 7.19783 4.0224 5.73023 5.20175C4.26263 6.38109 3.15808 7.95108 2.54387 9.73081C1.92965 11.5105 1.83076 13.4276 2.25858 15.2611C2.68641 17.0946 3.62354 18.7699 4.962 20.094C5.14192 20.2699 5.38154 20.3715 5.63306 20.3785C5.88458 20.3856 6.12951 20.2975 6.319 20.132L7.346 19.243C7.54677 19.0695 7.80822 18.9829 8.07283 19.0022C8.33744 19.0216 8.58355 19.1452 8.757 19.346C8.93045 19.5467 9.01704 19.8082 8.99772 20.0728C8.97841 20.3374 8.85477 20.5835 8.654 20.757L7.628 21.645C7.05596 22.1367 6.3204 22.3963 5.56642 22.3724C4.81243 22.3485 4.09477 22.0429 3.555 21.516C2.151 20.1252 1.11222 18.4092 0.530905 16.5205C-0.050406 14.6317 -0.156246 12.6286 0.222786 10.689C0.601818 8.74951 1.45399 6.93362 2.70361 5.40265C3.95322 3.87168 5.5616 2.67302 7.38589 1.91315C9.21017 1.15328 11.1939 0.855712 13.1608 1.04688C15.1278 1.23805 17.0171 1.91204 18.6609 3.00898C20.3047 4.10592 21.6522 5.59186 22.5836 7.33481C23.515 9.07776 24.0015 11.0238 24 13ZM17.707 8.70697C17.8892 8.51837 17.99 8.26577 17.9877 8.00357C17.9854 7.74137 17.8802 7.49056 17.6948 7.30515C17.5094 7.11975 17.2586 7.01458 16.9964 7.0123C16.7342 7.01002 16.4816 7.11081 16.293 7.29297L12.518 11.068C12.0927 10.954 11.6417 10.9835 11.2349 11.152C10.8282 11.3204 10.4883 11.6184 10.2682 11.9997C10.048 12.381 9.95984 12.8243 10.0173 13.2608C10.0748 13.6973 10.2746 14.1027 10.586 14.414C10.8973 14.7253 11.3027 14.9252 11.7392 14.9827C12.1757 15.0401 12.619 14.9519 13.0003 14.7318C13.3816 14.5116 13.6795 14.1718 13.848 13.765C14.0165 13.3582 14.046 12.9072 13.932 12.482L17.707 8.70697Z" fill="black"/>
</g>
<defs>
<clipPath id="clip0_877_701">
<rect width="24" height="24" fill="white"/>
</clipPath>
</defs>
</svg>
