<svg width="13" height="9" viewBox="0 0 13 9" fill="none" xmlns="http://www.w3.org/2000/svg">
<path fill-rule="evenodd" clip-rule="evenodd" d="M11.5192 0.103944L5.4018 6.25165L2.09277 2.95218C1.95509 2.8149 1.73185 2.8149 1.59416 2.95218L0.892328 3.65199C0.826208 3.71792 0.789062 3.80734 0.789062 3.90058C0.789062 3.99381 0.826208 4.08323 0.892328 4.14916L5.15348 8.39799C5.2196 8.46392 5.30927 8.50096 5.40278 8.50096C5.49629 8.50096 5.58597 8.46392 5.65209 8.39799L12.7206 1.34993C12.8549 1.21598 12.8587 0.999968 12.729 0.861476L12.0272 0.111682C11.9618 0.0418089 11.8707 0.00150085 11.7748 4.10635e-05C11.679 -0.0014187 11.5867 0.0360956 11.5192 0.103944Z" fill="black"/>
</svg>
