<svg width="12" height="12" viewBox="0 0 12 12" fill="none" xmlns="http://www.w3.org/2000/svg">
<path d="M5.86275 0C2.63015 0 0 2.63015 0 5.86275C0 9.09534 2.63015 11.7255 5.86275 11.7255C9.09534 11.7255 11.7255 9.09534 11.7255 5.86275C11.7255 2.63015 9.09534 0 5.86275 0ZM9.13942 4.31992L5.39255 8.0374C5.17215 8.2578 4.8195 8.2725 4.5844 8.05209L2.60077 6.24478C2.36567 6.02438 2.35098 5.65703 2.55669 5.42194C2.77709 5.18684 3.14443 5.17215 3.37953 5.39255L4.95174 6.83252L8.30188 3.48238C8.53698 3.24729 8.90432 3.24729 9.13942 3.48238C9.37452 3.71748 9.37452 4.08482 9.13942 4.31992Z" fill="#7C7E84"/>
</svg>
