<svg width="10" height="11" viewBox="0 0 10 11" fill="none" xmlns="http://www.w3.org/2000/svg">
<g clip-path="url(#clip0_28_526)">
<path d="M5.00253 5.62875C6.50711 5.62 7.31711 4.8075 7.34503 3.26583C7.3192 1.7825 6.46545 0.926667 4.99753 0.917084C3.51378 0.92625 2.65503 1.80125 2.65503 3.28042C2.65503 4.75958 3.5142 5.62 5.00253 5.62875Z" fill="#B9B9B9"/>
<path d="M4.9976 6.19208C2.7776 6.20624 1.58302 7.40499 1.54302 9.65958C1.54135 9.77124 1.58427 9.87916 1.6626 9.95874C1.74093 10.0383 1.84802 10.0833 1.95968 10.0833H8.04093C8.1526 10.0833 8.25968 10.0383 8.33802 9.95874C8.41635 9.87916 8.45927 9.77124 8.4576 9.65958C8.41927 7.43749 7.1926 6.20624 4.9976 6.19208Z" fill="#B9B9B9"/>
</g>
<defs>
<clipPath id="clip0_28_526">
<rect width="10" height="10" fill="white" transform="translate(0 0.5)"/>
</clipPath>
</defs>
</svg>
