<svg width="36" height="36" viewBox="0 0 36 36" fill="none" xmlns="http://www.w3.org/2000/svg">
<path d="M17.991 1.5C7.2285 1.5 1.5 7.659 1.5 18.0285C1.5 28.317 7.2765 34.5 18.009 34.5C28.7415 34.5 34.3005 28.8945 34.5 17.9745C34.317 7.419 28.461 1.5 17.991 1.5ZM9.285 17.3565C9.0195 17.0445 8.907 16.629 8.979 16.218L9.081 15.6165C9.126 15.357 9.0405 15.0915 8.8515 14.9055L8.412 14.478C8.025 14.1015 7.89 13.5495 8.058 13.038C8.2245 12.528 8.658 12.1635 9.189 12.0855L9.795 11.997C10.0575 11.9595 10.2825 11.7945 10.3995 11.5575L10.671 11.0085C11.1495 10.041 12.717 10.0455 13.188 11.01L13.458 11.5575C13.575 11.793 13.8015 11.958 14.0625 11.9955L14.667 12.0855C15.198 12.162 15.633 12.5265 15.801 13.038C15.9645 13.551 15.831 14.1 15.45 14.475L15.0075 14.9055C14.8185 15.09 14.7315 15.3555 14.778 15.6165L14.88 16.2195C14.9505 16.626 14.8395 17.04 14.5755 17.355C14.304 17.6775 13.9125 17.8605 13.497 17.8605C13.269 17.8605 13.0485 17.805 12.8415 17.6955L12.303 17.412C12.072 17.292 11.784 17.292 11.559 17.412L11.0145 17.697C10.422 18.006 9.7005 17.8515 9.2865 17.355L9.285 17.3565ZM24.222 26.322C22.2705 27.9315 20.121 28.7895 18.003 28.803C15.879 28.7895 13.728 27.93 11.778 26.322C11.46 26.0595 10.938 25.455 11.01 24.348C11.0505 23.6955 11.4 23.1105 11.967 22.743C12.5685 22.353 13.308 22.275 13.9965 22.5285C15.5775 23.115 16.8555 23.4225 18.0255 23.4975C19.146 23.424 20.223 23.181 22.008 22.5285C23.0745 22.1385 23.6655 22.503 24.036 22.7415C24.603 23.109 24.951 23.694 24.993 24.348C25.065 25.455 24.543 26.0595 24.225 26.322H24.222ZM27.588 14.4765L27.147 14.9055C26.958 15.09 26.871 15.3555 26.9175 15.6165L27.021 16.2195C27.0915 16.629 26.9805 17.0445 26.712 17.3595C26.4435 17.679 26.052 17.862 25.6365 17.862C25.413 17.862 25.1925 17.8065 24.9855 17.7L24.4425 17.4135C24.2115 17.2935 23.9235 17.2935 23.6985 17.4135L23.154 17.6985C22.581 18 21.843 17.8545 21.426 17.3565C21.1605 17.0415 21.0495 16.626 21.1215 16.218L21.222 15.618C21.267 15.357 21.1815 15.09 20.9925 14.9055L20.553 14.478C20.169 14.1015 20.034 13.551 20.199 13.0425C20.3655 12.528 20.8005 12.1635 21.3315 12.0855L21.9375 11.997C22.1985 11.9595 22.4235 11.796 22.5405 11.559L22.812 11.01C23.289 10.0425 24.8565 10.047 25.329 11.0115L25.599 11.559C25.716 11.7945 25.9425 11.9595 26.2035 11.997L26.811 12.0855C27.342 12.1635 27.7755 12.528 27.942 13.038C28.1085 13.5495 27.972 14.1015 27.588 14.4765Z" fill="#4945FF"/>
</svg>
