<svg width="36" height="36" viewBox="0 0 36 36" fill="none" xmlns="http://www.w3.org/2000/svg">
<path d="M17.991 1.5C7.2285 1.5 1.5 7.659 1.5 18.0285C1.5 28.317 7.2765 34.5 18.009 34.5C28.7415 34.5 34.3005 28.8945 34.5 17.9745C34.317 7.419 28.461 1.5 17.991 1.5ZM9.8805 14.2155C9.9165 12.393 11.046 11.3355 12.903 11.325C14.7465 11.3355 15.9015 12.4275 15.936 14.1735C15.9 15.993 14.7735 17.0505 12.918 17.064H12.897C11.043 17.0505 9.9165 15.9855 9.8805 14.2155ZM24.267 26.1675C23.973 26.4645 23.586 26.613 23.199 26.613C22.818 26.613 22.437 26.469 22.146 26.1795C19.308 23.379 16.7475 23.3865 13.8435 26.1915C13.248 26.766 12.2985 26.751 11.7225 26.154C11.1465 25.5585 11.1645 24.609 11.76 24.033C15.831 20.103 20.2665 20.1105 24.252 24.045C24.843 24.627 24.8475 25.578 24.267 26.1675ZM23.103 17.064H23.082C21.228 17.0505 20.1 15.9855 20.064 14.2155C20.1 12.393 21.2295 11.3355 23.0865 11.325C24.93 11.3355 26.085 12.4275 26.1195 14.1735C26.0835 15.993 24.957 17.0505 23.1015 17.064H23.103Z" fill="#727272" fill-opacity="0.39"/>
</svg>
